<svg id="Capa_1" enable-background="new 0 0 512 512" height="512" viewBox="0 0 512 512" width="512" xmlns="http://www.w3.org/2000/svg"><g><path d="m219.861 280.109c0 19.927 16.212 36.139 36.139 36.139s36.139-16.212 36.139-36.139c0-22.405-20.872-52.165-36.127-70.27-15.257 18.135-36.151 47.941-36.151 70.27z"/><path d="m512 290.523v-69.046l-39.911-2.318c-2.297-13.57-5.834-26.716-10.503-39.316l33.377-21.946-34.523-59.795-35.742 17.957c-8.678-10.45-18.309-20.08-28.759-28.759l17.957-35.742-59.795-34.523-21.945 33.377c-12.599-4.669-25.746-8.206-39.316-10.503l-2.317-39.909h-69.046l-2.318 39.911c-13.569 2.297-26.716 5.833-39.316 10.503l-21.945-33.377-59.796 34.522 17.957 35.742c-10.45 8.678-20.08 18.308-28.759 28.759l-35.741-17.958-34.523 59.795 33.377 21.946c-4.669 12.599-8.206 25.746-10.503 39.316l-39.91 2.318v69.046l39.911 2.318c2.297 13.57 5.834 26.716 10.503 39.316l-33.377 21.946 34.523 59.795 35.742-17.957c8.678 10.45 18.308 20.08 28.759 28.759l-17.957 35.742 59.795 34.523 21.945-33.377c12.599 4.669 25.746 8.206 39.316 10.503l2.317 39.909h69.046l2.318-39.911c13.569-2.297 26.716-5.833 39.316-10.503l21.945 33.377 59.795-34.523-17.957-35.742c10.45-8.678 20.08-18.309 28.759-28.759l35.742 17.957 34.523-59.795-33.377-21.946c4.669-12.599 8.206-25.746 10.503-39.316zm-256 136.039c-94.048 0-170.562-76.514-170.562-170.562s76.514-170.562 170.562-170.562c94.049 0 170.562 76.514 170.562 170.562s-76.513 170.562-170.562 170.562z"/><path d="m256 115.438c-77.506 0-140.562 63.056-140.562 140.562s63.056 140.562 140.562 140.562c77.507 0 140.562-63.056 140.562-140.562s-63.055-140.562-140.562-140.562zm0 230.81c-36.469 0-66.139-29.67-66.139-66.139 0-20.135 9.532-43.797 28.33-70.328 13.341-18.829 26.585-32.284 27.143-32.848l10.666-10.787 10.666 10.788c.558.563 13.802 14.019 27.143 32.848 18.799 26.531 28.33 50.193 28.33 70.328 0 36.468-29.67 66.138-66.139 66.138z"/></g></svg>